# xmcd CD database file
#
# Track frame offsets:
#	150
#	12757
#	34992
#	51407
#	70785
#	93150
#	109475
#	127715
#	145140
#	178310
#	200975
#	223345
#
# Disc length: 3177 seconds
#
# Revision: 2
# Processed by: cddbd v1.5.2PL0 Copyright (c) Steve Scherf et al.
# Submitted via: CDex 1.51
#
DISCID=b90c670c
DTITLE=North Mississippi Allstars - Electric Blue Watermelon
DYEAR=2005
DGENRE=Blues Rock
TTITLE0=Mississippi Bollweevil
TTITLE1=No Mo
TTITLE2=Teasin' Brown
TTITLE3=Moonshine
TTITLE4=Hurry Up Sunrise
TTITLE5=Stompin' My Foot
TTITLE6=Bang Bang Lulu
TTITLE7=Deep Blue Sea
TTITLE8=Mean Ol' Wind Died Down
TTITLE9=Horseshoe
TTITLE10=Bounce Ball
TTITLE11=Dragonslayer
EXTD=YEAR: 2005
EXTT0=
EXTT1=
EXTT2=
EXTT3=
EXTT4=
EXTT5=
EXTT6=
EXTT7=
EXTT8=
EXTT9=
EXTT10=
EXTT11=
PLAYORDER=
